<?xml version="1.0" encoding="utf-8"?>
<!-- Generator: Adobe Illustrator 24.1.1, SVG Export Plug-In . SVG Version: 6.00 Build 0)  -->
<svg version="1.1" id="Layer_1" xmlns="http://www.w3.org/2000/svg" xmlns:xlink="http://www.w3.org/1999/xlink" x="0px" y="0px"
	 viewBox="0 0 512 512" style="enable-background:new 0 0 512 512;" xml:space="preserve">
<g>
	<path d="M466.97,203.77L274.73,7.69C269.6,2.56,263.19,0,256.14,0c-7.05,0-13.45,2.56-18.59,7.69L45.32,203.77
		c-7.05,7.05-9.61,19.87-5.13,28.84c3.85,9.61,13.46,16.66,23.71,16.66h83.3v237.1c0,14.1,14.74,25.63,28.84,25.63h160.2
		c14.1,0,28.84-11.53,28.84-25.63V249.91h83.3c10.25,0,19.86-7.69,23.71-16.66C475.94,223.64,474.01,211.46,466.97,203.77z
		 M336.24,198.65c-14.1,0-22.43,8.97-22.43,23.07v239.65H198.47V221.72c0-14.1-8.33-23.07-22.43-23.07h-51.26L256.14,64.72
		l131.36,133.93H336.24z"/>
</g>
</svg>
